<?xml version="1.0" standalone="no"?><!DOCTYPE svg PUBLIC "-//W3C//DTD SVG 1.1//EN" "http://www.w3.org/Graphics/SVG/1.1/DTD/svg11.dtd"><svg t="1537755680423" class="icon" style="" viewBox="0 0 1024 1024" version="1.1" xmlns="http://www.w3.org/2000/svg" p-id="2393" xmlns:xlink="http://www.w3.org/1999/xlink" width="200" height="200"><defs><style type="text/css"></style></defs><path d="M580.608 851.648l-126.432 69.312c-28.768 15.744-64.32 4.224-79.424-25.728a63.744 63.744 0 0 1-5.92-38.912l24.16-146.784a62.88 62.88 0 0 0-16.928-54.272l-102.304-103.936a63.168 63.168 0 0 1-1.056-86.72 58.048 58.048 0 0 1 33.664-17.888l141.376-21.408a59.104 59.104 0 0 0 44.288-33.536l63.232-133.536c14.368-30.368 49.664-42.848 78.784-27.84 11.616 5.984 20.992 15.744 26.72 27.84l63.232 133.536c8.576 18.112 25.12 30.656 44.288 33.536l141.376 21.408c32.16 4.864 54.432 36 49.76 69.504a62.368 62.368 0 0 1-17.152 35.104l-102.304 103.936a63.04 63.04 0 0 0-16.928 54.272l24.16 146.784c5.504 33.376-16 65.088-48.032 70.816a56.64 56.64 0 0 1-37.312-6.176l-126.432-69.312a56.768 56.768 0 0 0-54.816 0z" fill="#CAE705" p-id="2394"></path><path d="M895.968 337.312l-179.936-26.272a75.008 75.008 0 0 1-56.384-41.184l-80.48-163.904a74.656 74.656 0 0 0-134.272 0l-80.48 163.904A74.88 74.88 0 0 1 308.032 311.04l-179.968 26.24c-16.288 2.4-31.36 10.112-42.848 21.952a75.552 75.552 0 0 0 1.344 106.432l130.208 127.584a75.52 75.52 0 0 1 21.536 66.624l-30.72 180.128a75.68 75.68 0 0 0 7.52 47.744 74.72 74.72 0 0 0 101.12 31.584l161.024-84.992a74.56 74.56 0 0 1 69.664 0l160.928 85.056c14.56 7.68 31.264 10.336 47.488 7.552a75.264 75.264 0 0 0 61.12-86.912l-30.72-180.128a75.552 75.552 0 0 1 21.536-66.624l130.208-127.584a75.456 75.456 0 0 0-41.504-128.384z m-3.328 82.656l-130.208 127.584a139.52 139.52 0 0 0-39.84 123.104l30.72 180.128a11.232 11.232 0 0 1-8.928 13.056 10.656 10.656 0 0 1-6.72-1.088l-160.928-85.056a138.56 138.56 0 0 0-129.472 0l-160.896 85.088a10.688 10.688 0 0 1-14.496-4.672 11.616 11.616 0 0 1-1.152-7.328l30.72-180.128a139.584 139.584 0 0 0-39.84-123.104l-130.208-127.584a11.52 11.52 0 0 1-0.192-16.16 10.784 10.784 0 0 1 6.144-3.168l179.968-26.272a138.944 138.944 0 0 0 104.576-76.288l80.48-163.904a10.656 10.656 0 0 1 19.36 0l80.48 163.904a138.944 138.944 0 0 0 104.576 76.288l179.936 26.272a11.2 11.2 0 0 1 9.216 12.8 11.52 11.52 0 0 1-3.296 6.528z" fill="#2B82D8" p-id="2395"></path><path d="M587.52 551.424c-18.368 15.264-45.664 24.576-75.52 24.576s-57.152-9.312-75.52-24.576a32 32 0 1 0-40.96 49.152C425.728 625.76 467.584 640 512 640s86.272-14.24 116.48-39.424a32 32 0 0 0-40.96-49.152z" fill="#2B82D8" p-id="2396"></path></svg>