<?xml version="1.0" encoding="UTF-8"?>
<svg width="1024px" height="1024px" viewBox="0 0 1024 1024" version="1.1" xmlns="http://www.w3.org/2000/svg" xmlns:xlink="http://www.w3.org/1999/xlink">
    <!-- Generator: Sketch 50.2 (55047) - http://www.bohemiancoding.com/sketch -->
    <title>Shape</title>
    <desc>Created with Sketch.</desc>
    <defs></defs>
    <g class="myPhone-svg" stroke="none" stroke-width="1" fill="none" fill-rule="evenodd">
        <path d="M920.422353,705.200596 C826.229518,644.794321 811.895826,636.398873 778.723567,641.722816 C745.585436,647.046759 735.72249,654.281861 688.045899,722.50341 C681.288587,730.898858 617.298889,831.712494 387.618534,607.117187 C219.231778,430.334982 269.09255,366.174645 300.933824,324.641066 C328.645629,298.294374 359.73609,286.622654 364.343348,239.560364 C366.322763,217.889186 363.558408,173.45474 293.664594,75.917377 C246.807072,6.262458 237.490172,0.699621 206.229071,0.051192 C174.933843,-0.597237 125.107198,15.169825 73.881313,57.215322 C23.201472,91.855078 7.570922,132.501334 2.144596,180.075541 C-3.588881,240.140537 -14.81694,443.269433 238.070345,726.974157 C490.95763,1010.67888 817.868198,1071.66533 931.752795,991.191885 C980.828627,955.698933 1020.92884,876.863625 1022.66936,826.149657 C1028.81237,791.168622 1014.61519,765.572743 920.388225,705.200596 L920.422353,705.200596 Z" id="Shape" fill="#000000" fill-rule="nonzero"></path>
    </g>
</svg>