<?xml version="1.0" standalone="no"?><!DOCTYPE svg PUBLIC "-//W3C//DTD SVG 1.1//EN" "http://www.w3.org/Graphics/SVG/1.1/DTD/svg11.dtd"><svg t="1537757182022" class="icon" style="" viewBox="0 0 1024 1024" version="1.1" xmlns="http://www.w3.org/2000/svg" p-id="6744" xmlns:xlink="http://www.w3.org/1999/xlink" width="200" height="200"><defs><style type="text/css"></style></defs><path id="myWeb" d="M339.536842 885.490526c-26.947368 26.947368-70.602105 26.947368-97.549474 0l-98.088421-98.088421c-26.947368-26.947368-26.947368-70.602105 0-98.088421l126.652632-126.652631 118.568421-118.568421c-52.816842-31.258947-122.341053-24.252632-167.612632 21.018947L46.349474 640.808421c-53.894737 53.894737-53.894737 141.743158 0 195.637895l146.593684 146.593684c53.894737 53.894737 141.743158 53.894737 195.637895 0l175.157894-175.157895c45.271579-45.271579 52.277895-114.795789 21.018948-167.612631L339.536842 885.490526zM983.578947 192.404211L836.985263 45.810526c-53.894737-53.894737-141.743158-53.894737-195.637895 0L466.189474 221.507368c-45.271579 45.271579-52.277895 114.256842-21.018948 167.612632l245.221053-245.221053c26.947368-26.947368 70.602105-26.947368 97.549474 0l97.549473 98.088421c26.947368 26.947368 26.947368 70.602105 0 98.088421l-245.221052 245.221053c52.816842 31.258947 122.341053 24.252632 167.612631-21.018947L983.578947 388.042105c53.894737-53.894737 53.894737-141.204211 0-195.637894z m-656.437894 485.052631l24.252631 24.252632c20.48 20.48 53.355789 20.48 73.296842 0l277.018948-277.557895c20.48-20.48 20.48-53.355789 0-73.296842l-24.252632-24.252632c-20.48-20.48-53.355789-20.48-73.296842 0l-277.018947 277.557895c-19.941053 20.48-19.941053 53.355789 0 73.296842z" fill="#A9A9A9" p-id="6745"></path></svg>