<?xml version="1.0" standalone="no"?><!DOCTYPE svg PUBLIC "-//W3C//DTD SVG 1.1//EN" "http://www.w3.org/Graphics/SVG/1.1/DTD/svg11.dtd"><svg t="1537755661915" class="icon" style="" viewBox="0 0 1024 1024" version="1.1" xmlns="http://www.w3.org/2000/svg" p-id="2274" xmlns:xlink="http://www.w3.org/1999/xlink" width="200" height="200"><defs><style type="text/css"></style></defs><path d="M608 928C379.36 760.064 262.112 606.08 256.256 466.08 247.424 254.464 465.088 194.688 608 323.616c142.912-128.96 360.576-69.152 351.744 142.464C953.888 606.08 836.64 760.064 608 928z" fill="#CAE705" p-id="2275"></path><path d="M895.712 353.344c8.16-190.08-189.984-258.528-341.504-125.536L512 264.896 469.792 227.84C318.24 94.816 120.128 163.264 128.288 353.344c6.08 141.856 132.032 308.896 383.712 495.52 251.68-186.624 377.632-353.664 383.712-495.52zM512 928C220.992 720.096 71.776 529.44 64.32 356.096 53.088 94.112 330.144 20.064 512 179.712 693.856 20.064 970.912 94.08 959.68 356.064 952.224 529.44 803.008 720.096 512 928z" fill="#2B82D8" p-id="2276"></path><path d="M336 400h-128a32 32 0 0 1 0-64h128a32 32 0 0 1 0 64z" fill="#2B82D8" p-id="2277"></path><path d="M272 464a32 32 0 0 1-32-32v-128a32 32 0 0 1 64 0v128a32 32 0 0 1-32 32z" fill="#2B82D8" p-id="2278"></path></svg>