<?xml version="1.0" encoding="UTF-8"?>
<svg width="1054px" height="1054px" viewBox="0 0 1054 1054" version="1.1" xmlns="http://www.w3.org/2000/svg" xmlns:xlink="http://www.w3.org/1999/xlink">
    <!-- Generator: Sketch 50.2 (55047) - http://www.bohemiancoding.com/sketch -->
    <title>Shape</title>
    <desc>Created with Sketch.</desc>
    <defs></defs>
    <g id="Page-1" stroke="none" stroke-width="1" fill="none" fill-rule="evenodd">
        <path d="M791.344192,641.912732 C812.198756,638.565703 826.934037,640.500713 847.962777,650.189299 C866.088743,658.540488 885.154956,670.152683 943.48039,707.570597 C1035.38745,766.456361 1060.16366,797.201512 1052.62023,842.707566 C1050.15136,900.254539 1006.20822,981.703964 955.543175,1018.34628 C892.202037,1063.10567 775.679529,1065.79049 647.483546,1024.94182 C504.765215,979.46571 361.159354,885.777981 241.873039,751.955155 C181.328091,684.032058 132.969682,617.574268 95.7093491,552.755443 C63.0537728,495.947145 39.4410602,441.321663 23.755654,388.96471 C10.7224161,345.460539 3.54690379,304.908803 1.0590293,266.9535 C-0.735192509,239.580643 -0.0601396561,217.458486 2.21246931,193.650202 C5.42788013,165.437329 11.690608,142.541442 22.8130999,121.725872 C35.3362898,98.2889175 53.8884747,78.0689136 79.8714435,60.2056244 C128.585569,20.3757305 181.560581,-0.773948273 221.540139,0.0544178003 C260.487181,0.862271336 273.501995,11.7881319 320.986914,82.3611417 C353.522935,127.788184 374.153906,165.180503 385.101201,196.196145 C393.598376,220.270159 395.857447,238.667212 394.271982,256.021833 C392.495785,274.165354 387.132401,289.026258 378.183423,301.948944 C371.182391,312.058717 363.225908,319.790555 349.880998,330.635592 C348.169815,332.026223 341.802546,337.14467 342.402507,336.661064 C339.445528,339.044571 337.232605,340.856786 335.090617,342.661228 C332.157991,345.131715 329.547795,347.434427 327.106657,349.721734 C323.848338,353.975147 322.416344,355.871594 320.554843,358.422024 C311.827803,370.37888 306.212939,380.373703 302.612956,391.537263 C298.155121,405.361025 297.206327,420.326085 300.438381,437.619026 C308.702614,481.836394 343.814345,538.597647 413.296315,611.578837 C492.727671,689.220366 556.610395,732.122729 606.207112,746.745681 C625.151703,752.33125 641.118708,753.48568 654.490314,751.108822 C664.739325,749.287018 673.029722,745.483467 679.826195,740.240494 C682.673859,738.043734 685.106642,735.710114 687.264327,733.242052 C688.05703,732.335322 688.77044,731.460143 689.519059,730.492816 C739.337163,659.409031 752.184524,648.20409 791.344192,641.912732 Z M763.716937,684.812788 C753.12145,694.088334 740.27816,710.412711 715.34102,746.095848 C714.673917,746.979565 713.644264,748.336637 713.244098,748.853711 C712.152636,750.264045 711.07057,751.591474 709.8501,752.987505 C706.46374,756.860982 702.631317,760.53719 698.150254,763.993997 C687.630229,772.109413 674.8955,777.951978 659.740638,780.645818 C641.612765,783.868122 620.972406,782.375803 597.72307,775.521036 C542.663916,759.287554 474.850202,713.729361 392.131317,632.841844 C318.514802,555.568659 280.476187,494.105247 270.949016,443.130593 C266.800199,420.932557 268.069756,400.908214 274.060827,382.32988 C278.792359,367.657381 285.874316,355.051037 296.322819,340.735616 C298.504874,337.745997 300.097825,335.643346 304.029571,330.514798 C308.750023,325.773679 312.059694,322.836596 315.762392,319.717389 C318.098677,317.749269 320.464376,315.811942 323.575455,313.304221 C323.035098,313.739782 329.322584,308.68547 330.960805,307.354133 C342.27843,298.156615 348.516173,292.09499 353.519894,284.869415 C359.528948,276.192098 363.131039,266.211396 364.40553,253.195965 C365.590584,240.221669 363.864145,226.162176 356.811663,206.181234 C346.88307,178.05176 327.546616,143.01956 296.471866,99.6545035 C272.100536,63.4376596 259.452018,47.0101099 249.43938,38.5832477 C241.558718,31.9507051 235.945191,30.3596656 220.918342,30.0479732 C188.51744,29.376635 142.053794,47.9777612 98.3979561,83.8098683 C55.3520995,113.301642 37.8661674,145.98161 32.0635419,196.639144 C29.9429202,218.912924 29.3210844,239.457053 30.9947891,264.991286 C33.3369358,300.723349 40.1179534,339.045634 52.4937155,380.355192 C67.5117736,430.484575 90.2054842,482.984045 121.718357,537.804473 C157.927832,600.795204 205.069993,665.581534 264.267651,731.993159 C379.994123,861.82233 519.01882,952.521331 656.59161,996.35785 C776.667278,1034.61905 883.917786,1032.16484 938.029322,993.98907 C981.499691,962.503996 1021.02122,888.914569 1022.67819,840.635155 C1025.5711,823.31881 1023.15632,813.031631 1012.42495,799.530155 C999.062227,782.718109 972.804002,761.987982 927.28866,732.82585 C831.781288,671.554357 822.529916,667.291706 796.101749,671.533091 C779.734347,674.162743 772.732122,676.920675 763.716937,684.812788 Z" id="Shape" fill="#000000" fill-rule="nonzero"></path>
    </g>
</svg>